<?xml version="1.0" standalone="no"?>
<!DOCTYPE svg PUBLIC "-//W3C//DTD SVG 20010904//EN"
 "http://www.w3.org/TR/2001/REC-SVG-20010904/DTD/svg10.dtd">
<svg version="1.0" xmlns="http://www.w3.org/2000/svg"
 width="768.000000pt" height="542.000000pt" viewBox="0 0 768.000000 542.000000"
 preserveAspectRatio="xMidYMid meet">

<g transform="translate(0.000000,542.000000) scale(0.100000,-0.100000)"
fill="#000000" stroke="none">
<path d="M6490 5404 c-1110 -92 -2557 -455 -3835 -961 -132 -52 -285 -116
-340 -142 -93 -44 -101 -50 -114 -87 -22 -63 -94 -166 -162 -234 l-64 -62 42
6 c24 3 43 4 43 1 0 -5 -69 -72 -199 -193 l-46 -44 90 48 c50 26 123 65 163
86 78 43 106 43 57 1 -46 -39 -198 -186 -188 -182 4 2 125 63 268 135 143 72
275 136 293 142 l32 11 0 -42 c0 -23 -27 -177 -60 -342 -33 -165 -70 -363 -81
-440 -21 -139 -31 -386 -16 -401 4 -4 27 11 51 35 l43 42 6 -67 c8 -79 8 -78
-100 -124 -109 -46 -188 -63 -247 -55 -28 4 -65 7 -83 8 l-32 1 33 45 c83 115
136 274 138 416 1 106 -13 177 -54 261 -43 89 -107 156 -256 267 -74 54 -152
117 -174 140 -93 95 -117 223 -62 334 36 74 150 189 269 269 245 166 591 323
1060 481 l250 83 -142 -6 c-89 -4 -143 -3 -143 3 0 5 37 21 83 36 l82 26 -128
-5 -127 -6 10 27 c6 15 9 29 8 30 -2 2 -26 -2 -54 -8 -28 -6 -58 -8 -67 -4
-15 6 -15 10 -1 42 l14 36 -27 -7 c-56 -13 -252 -66 -385 -105 -459 -132 -820
-284 -1064 -447 -348 -233 -473 -486 -384 -775 39 -127 139 -245 312 -368 54
-38 103 -79 109 -91 21 -39 6 -157 -27 -218 -37 -67 -124 -155 -214 -215 -105
-70 -316 -167 -499 -229 -154 -53 -502 -146 -545 -146 -17 0 -12 -8 22 -43 27
-28 42 -52 42 -68 0 -45 98 -159 150 -174 14 -4 40 -21 58 -36 18 -16 41 -29
51 -29 10 0 21 -7 25 -15 3 -10 19 -15 44 -15 33 0 40 -4 54 -32 l15 -33 112
0 111 0 0 -32 c0 -30 3 -33 30 -33 49 0 176 29 290 65 93 30 102 32 75 12 -82
-61 -231 -183 -293 -241 -86 -81 -113 -121 -156 -224 -19 -45 -54 -117 -79
-159 -35 -63 -117 -290 -117 -326 0 -4 11 -7 25 -7 l25 0 -31 -61 -31 -62 26
7 c22 5 25 3 28 -26 l3 -33 45 58 c25 31 48 57 52 57 4 0 -3 -25 -17 -56 -30
-68 -30 -68 -5 -61 16 4 22 -1 28 -25 l7 -30 70 89 c83 105 258 304 310 353
l37 35 -7 -115 -8 -115 -43 -47 c-25 -27 -61 -84 -84 -134 -22 -48 -40 -88
-40 -90 0 -2 14 -4 30 -4 27 0 30 -3 30 -34 0 -30 2 -33 26 -28 24 4 25 3 19
-32 -6 -32 -5 -36 13 -36 18 0 21 -8 26 -68 14 -160 37 -362 42 -376 3 -8 28
-22 55 -31 27 -9 52 -23 57 -31 10 -18 181 -76 196 -67 26 17 50 11 90 -22
l42 -34 37 37 36 37 -6 401 -6 401 54 43 c53 42 242 169 332 222 37 22 48 35
57 69 12 45 11 66 -10 140 -13 45 -13 45 29 107 40 60 55 76 46 50 -3 -7 -14
-87 -26 -178 -16 -124 -23 -242 -26 -472 -3 -169 -3 -314 1 -323 5 -13 9 -13
25 -3 17 10 25 9 48 -8 15 -12 29 -30 31 -42 3 -19 6 -20 29 -9 23 10 28 9 42
-13 25 -40 69 -77 97 -84 15 -4 41 -17 58 -30 42 -31 64 -38 85 -26 16 8 18
42 25 432 3 233 10 439 15 458 5 19 9 28 10 20 2 -31 60 -136 92 -168 18 -19
56 -45 84 -59 27 -14 60 -34 73 -44 25 -19 95 -44 155 -54 l37 -6 0 -87 c0
-86 1 -87 19 -63 13 17 20 20 26 11 4 -7 20 -10 36 -8 29 4 29 4 29 -46 l0
-51 19 25 c16 20 22 22 34 11 13 -10 23 -8 55 10 l39 23 39 -33 39 -32 9 25
c7 18 16 24 35 23 l26 -2 7 215 c12 360 20 480 29 480 5 0 9 -81 9 -182 0
-203 4 -228 31 -228 10 0 23 -9 29 -20 11 -21 11 -21 29 1 l18 22 6 -31 c4
-18 13 -32 20 -32 8 0 29 -35 49 -77 l35 -78 15 50 15 50 38 -80 c39 -84 40
-84 60 0 11 51 15 54 63 39 l22 -6 0 324 c0 329 2 348 37 348 10 0 13 -48 13
-232 0 -128 4 -238 8 -244 4 -6 27 -22 52 -34 25 -12 47 -26 50 -30 11 -17
120 -59 126 -49 4 6 18 -1 35 -17 l29 -28 0 29 c0 27 2 26 55 -31 l55 -59 -8
120 c-4 66 -7 345 -7 620 1 404 4 534 18 675 10 96 21 186 24 199 4 17 3 22
-6 17 -7 -5 -20 -1 -30 8 -16 15 -19 14 -39 -14 -32 -43 -46 -39 -38 12 6 39
4 44 -20 55 -24 11 -29 10 -54 -17 -32 -34 -38 -36 -67 -15 -21 15 -23 14 -37
-13 -14 -28 -76 -62 -111 -62 -10 0 -15 -11 -15 -33 0 -24 -9 -42 -33 -65
l-33 -32 -28 29 c-21 22 -27 37 -24 55 4 21 2 24 -12 16 -9 -5 -23 -16 -30
-25 -12 -14 -16 -13 -41 11 -16 15 -30 26 -32 23 -2 -2 -23 -32 -47 -66 -23
-35 -44 -63 -46 -63 -2 0 -9 11 -16 25 l-13 24 -36 -32 c-41 -38 -37 -14 -70
-377 -13 -141 -26 -238 -33 -242 -29 -20 -46 -8 -46 31 0 22 -3 42 -8 45 -4 2
-102 -35 -217 -84 -116 -48 -212 -86 -214 -84 -2 2 8 23 22 47 44 75 135 149
259 212 62 32 133 69 157 83 44 25 44 26 23 43 l-22 17 34 16 c30 14 34 21 39
68 4 29 7 79 7 112 l0 59 -32 -8 c-90 -20 -82 -23 -74 24 8 51 8 51 -127 7
-259 -85 -470 -229 -584 -399 -56 -84 -60 -88 -87 -78 -29 11 -55 50 -77 112
l-18 54 -18 -42 c-10 -24 -21 -43 -24 -43 -8 0 -46 79 -55 115 -6 26 -10 21
-51 -59 -32 -61 -62 -101 -104 -140 -54 -51 -61 -61 -72 -118 l-13 -63 -94
-52 c-52 -29 -99 -53 -103 -53 -4 0 15 34 44 76 28 42 49 78 46 80 -4 5 -343
-180 -362 -197 -5 -5 -14 -9 -20 -9 -21 0 19 261 49 319 68 131 1022 678 1823
1047 94 43 170 80 169 82 -6 5 -498 -162 -640 -217 -71 -27 -125 -46 -120 -41
9 8 468 230 592 285 34 15 61 30 58 32 -13 14 -760 -259 -995 -364 -12 -5 -13
3 -7 48 6 47 12 58 48 89 35 29 50 35 93 36 64 2 110 25 131 65 14 28 19 30
48 25 23 -5 37 -2 46 9 8 9 29 15 55 15 l43 0 6 218 c9 266 32 592 52 732 25
174 69 330 93 330 22 0 51 -41 51 -71 0 -28 3 -31 23 -25 12 4 35 9 51 13 l29
6 -8 -49 c-4 -27 -11 -107 -14 -178 l-6 -128 -84 -31 c-83 -30 -84 -30 -57
-44 18 -9 26 -22 26 -39 0 -15 8 -48 17 -75 15 -40 21 -48 37 -43 18 6 19 1
12 -186 l-7 -193 31 26 c17 15 42 27 56 27 23 0 24 -3 24 -56 l0 -56 31 26
c33 28 35 29 94 30 34 1 40 5 43 24 3 21 7 23 38 18 30 -6 35 -4 46 19 9 21
18 25 53 25 l42 0 7 92 c3 50 6 120 6 155 0 52 3 65 18 69 50 17 161 76 182
99 l25 26 95 -100 c79 -83 99 -100 117 -95 17 5 29 -1 49 -25 28 -34 40 -36
97 -20 29 8 37 15 37 34 0 33 10 36 57 20 51 -18 141 -10 139 12 -1 10 47 30
164 67 l165 52 11 67 c6 38 15 72 20 77 5 5 30 11 56 15 l47 7 -6 -36 c-5 -31
-3 -36 13 -36 16 0 497 116 625 150 41 11 40 8 55 204 l7 89 -34 -8 c-19 -4
-44 -9 -56 -12 -21 -5 -23 -2 -23 36 0 22 -3 41 -7 41 -3 0 -59 -16 -124 -35
-65 -19 -122 -35 -125 -35 -11 0 5 123 18 131 6 4 70 24 142 44 72 20 135 41
140 46 5 4 16 58 26 119 l16 112 -44 -7 c-25 -4 -51 -9 -58 -12 -11 -4 -14 5
-14 36 0 48 4 47 -107 22 -46 -10 -85 -15 -88 -13 -8 8 -6 65 3 78 4 6 83 31
176 55 92 24 174 48 182 54 11 9 41 201 32 211 -2 2 -27 -3 -56 -10 l-52 -14
0 44 c0 38 4 46 24 53 38 15 146 34 153 28 3 -4 8 -28 10 -54 3 -36 -2 -66
-22 -118 -28 -74 -35 -169 -60 -808 l-7 -177 26 10 c15 5 41 10 57 10 27 0 29
-2 29 -40 0 -37 2 -40 19 -30 11 5 43 10 71 10 49 0 51 1 67 38 10 20 18 38
19 40 1 1 15 -5 32 -15 31 -18 32 -18 47 4 15 22 17 22 41 6 19 -12 30 -13 48
-5 23 10 23 11 29 280 13 531 55 819 133 911 25 30 72 50 179 73 95 21 579 17
723 -5 143 -23 160 -29 177 -71 35 -83 -45 -218 -160 -273 -39 -19 -42 -25
-20 -43 21 -17 19 -30 -4 -30 -16 0 -20 -8 -23 -42 -3 -41 -5 -44 -46 -58 -32
-11 -42 -19 -40 -34 2 -15 -12 -25 -79 -50 -46 -17 -83 -34 -83 -37 0 -4 10
-10 23 -13 19 -6 13 -11 -43 -41 -72 -38 -64 -42 37 -21 41 9 82 12 103 7 l35
-7 -62 -32 c-34 -17 -64 -36 -67 -40 -8 -13 155 22 249 53 144 48 251 111 341
200 192 190 204 395 31 526 -74 56 -302 166 -397 193 -108 30 -306 56 -418 55
-48 -1 -161 -8 -252 -15z m-1570 -591 c0 -5 -5 -50 -10 -101 -13 -123 -34
-160 -25 -45 l6 81 -47 -14 c-63 -19 -64 -19 -64 19 0 30 3 33 53 48 59 19 87
22 87 12z m-730 -313 c0 -52 -7 -101 -19 -138 -15 -45 -21 -111 -30 -322 -7
-145 -14 -267 -17 -269 -2 -3 -18 9 -35 25 l-30 31 22 64 c18 50 23 87 23 169
1 95 -2 110 -26 160 -33 67 -77 111 -149 150 -30 16 -71 39 -92 50 -22 12 -37
23 -35 26 7 7 361 133 376 133 9 1 12 -21 12 -79z m686 -22 c-4 -29 -13 -145
-21 -258 -8 -113 -17 -237 -21 -277 l-6 -72 -46 -15 c-25 -9 -47 -16 -48 -16
-2 0 -4 20 -6 43 l-3 44 -117 -37 -118 -38 0 54 c0 31 6 58 14 66 7 8 74 36
147 62 74 26 137 51 140 54 4 4 9 56 12 116 l5 108 -28 -5 c-15 -4 -39 -9 -54
-13 -25 -6 -26 -4 -26 35 0 23 -4 41 -8 41 -4 0 -45 -11 -90 -24 l-82 -24 0
38 c0 21 6 42 13 48 14 12 314 120 335 121 10 1 12 -12 8 -51z m-1096 -350 c0
-43 -32 -107 -75 -148 -32 -31 -35 -32 -35 -13 0 28 27 171 35 183 3 6 22 10
41 10 32 0 34 -2 34 -32z m55 -2065 c-4 -58 -9 -102 -12 -99 -3 3 -2 58 3 123
4 65 9 109 12 99 2 -11 1 -66 -3 -123z m-919 -699 c23 6 24 4 24 -49 0 -54 0
-55 -30 -55 -34 0 -44 15 -60 85 -15 68 -5 89 22 47 17 -27 25 -32 44 -28z"/>
<path d="M6175 3648 c-44 -11 -161 -39 -260 -63 -663 -163 -1710 -501 -2042
-661 -96 -46 -118 -61 -154 -106 -33 -42 -117 -189 -107 -188 2 0 39 18 83 39
44 21 81 38 83 36 2 -2 -10 -30 -27 -64 -17 -33 -31 -63 -31 -65 0 -3 60 24
133 59 166 79 299 131 405 159 73 18 84 19 93 6 13 -19 6 -135 -31 -505 -41
-404 -54 -655 -46 -888 3 -109 9 -203 12 -209 3 -5 13 0 21 11 8 12 19 18 25
15 6 -4 30 -48 53 -98 l42 -91 19 32 c11 18 22 33 25 33 4 0 17 -25 29 -56 13
-31 29 -58 35 -60 7 -3 20 -23 30 -44 23 -50 35 -42 35 23 0 28 4 47 8 42 5
-6 26 -49 48 -97 l39 -88 10 66 c7 48 13 62 21 54 8 -8 10 86 6 357 -10 765
51 1462 143 1618 62 106 343 213 959 365 227 56 284 74 296 91 42 59 84 97
128 118 37 18 51 30 55 50 3 15 19 34 37 44 17 11 30 21 27 23 -2 2 -40 -4
-85 -13 -45 -9 -85 -14 -89 -10 -11 11 9 39 47 65 39 26 30 26 -75 0z"/>
<path d="M5980 3290 c-150 -27 -448 -103 -613 -157 -121 -39 -139 -47 -122
-57 41 -23 85 -74 85 -98 0 -30 17 -45 95 -88 33 -18 70 -40 83 -48 13 -9 34
-12 51 -9 l28 6 6 -122 c9 -167 -19 -726 -37 -745 -2 -2 -40 -13 -83 -23 -145
-37 -153 -40 -153 -51 0 -6 28 -43 62 -82 34 -39 68 -78 76 -88 10 -12 11 -25
4 -52 -9 -32 -8 -36 8 -36 29 0 29 -9 9 -90 -37 -146 -117 -327 -205 -463 -24
-37 -44 -72 -44 -77 0 -14 49 -12 103 4 l47 14 -26 -44 -26 -44 41 0 c39 0
162 40 187 61 11 9 270 99 286 99 4 0 8 -11 8 -25 0 -31 3 -31 56 0 37 22 46
34 73 105 60 159 104 355 116 520 l7 95 68 28 c38 15 96 46 129 67 l61 40 77
-93 c91 -109 228 -293 321 -429 61 -90 68 -98 98 -98 26 0 37 -6 51 -30 15
-25 23 -30 58 -30 64 0 82 9 92 43 8 30 12 32 58 35 28 1 57 5 65 9 34 13 54
8 92 -24 22 -18 44 -33 48 -33 5 0 19 14 31 31 20 28 25 31 61 25 23 -4 38 -3
36 3 -3 9 -469 506 -679 724 l-114 118 62 64 c75 78 116 160 139 275 53 268
-71 556 -287 665 -29 15 -70 38 -89 50 -115 72 -298 92 -500 55z m306 -357
c27 -17 70 -101 79 -153 9 -48 -18 -160 -57 -240 -21 -45 -54 -88 -105 -138
-41 -41 -76 -72 -78 -70 -3 3 -35 556 -35 604 0 7 8 15 18 18 31 9 155 -5 178
-21z"/>
<path d="M5115 2725 l-280 -82 -6 -229 c-4 -126 -12 -426 -19 -667 -7 -241
-10 -440 -7 -444 3 -3 27 2 53 11 26 9 49 16 51 16 2 0 3 -20 3 -45 0 -25 3
-45 6 -45 7 0 363 106 442 131 l62 21 0 179 0 179 -55 -6 -55 -7 0 38 0 37
-42 -7 c-24 -3 -55 -8 -70 -11 l-28 -6 0 61 0 60 116 38 c113 37 115 38 110
65 -3 15 6 70 20 124 14 53 23 99 20 101 -3 3 -28 0 -56 -7 -28 -7 -53 -10
-56 -7 -3 3 -1 21 4 41 12 42 5 44 -72 21 -71 -22 -76 -20 -76 23 0 20 4 43 8
50 5 7 69 30 143 52 115 34 138 44 162 72 33 40 33 42 2 56 l-25 12 21 52 c46
115 57 147 52 151 -2 3 -32 -4 -66 -14 -33 -10 -63 -16 -65 -14 -3 2 3 22 12
45 16 40 16 40 -7 39 -12 0 -148 -38 -302 -84z"/>
</g>
</svg>
